<svg xmlns="http://www.w3.org/2000/svg" width="236.754" height="100" viewBox="0 0 236.754 100">
  <g id="Grupo_4451" data-name="Grupo 4451" transform="translate(-48 -52)">
    <g id="Grupo_4014" data-name="Grupo 4014" transform="translate(134.753 82.001)">
      <path id="Trazado_1741" data-name="Trazado 1741" d="M89.545,407.081a7.591,7.591,0,0,1-2.742,1.371,12.467,12.467,0,0,1-3.41.457q-4.512,0-6.971-2.335t-2.461-6.8V386.726H69.449v-5.076h4.512v-6.193h6.408v6.193H87.7v5.076h-7.33v12.893a4.255,4.255,0,0,0,.974,3.02,3.669,3.669,0,0,0,2.819,1.041,5.673,5.673,0,0,0,3.589-1.116Z" transform="translate(-69.449 -369.365)" fill="#00695c"/>
      <path id="Trazado_1742" data-name="Trazado 1742" d="M93.782,376.166a3.717,3.717,0,0,1,0-5.431,4.138,4.138,0,0,1,2.922-1.091,4.259,4.259,0,0,1,2.922,1.041,3.339,3.339,0,0,1,1.179,2.614,3.8,3.8,0,0,1-1.154,2.817,4.01,4.01,0,0,1-2.947,1.142A4.134,4.134,0,0,1,93.782,376.166Zm-.308,5.558h6.408v27.107H93.474Z" transform="translate(-68.098 -369.644)" fill="#00695c"/>
      <path id="Trazado_1743" data-name="Trazado 1743" d="M133.181,396.77H111.7a7.361,7.361,0,0,0,2.947,4.746,9.731,9.731,0,0,0,5.921,1.751A10.03,10.03,0,0,0,128,400.323l3.434,3.909a11.559,11.559,0,0,1-4.665,3.3,18.648,18.648,0,0,1-14.3-.66,12.86,12.86,0,0,1-5.307-4.949,13.861,13.861,0,0,1-1.871-7.182,14.072,14.072,0,0,1,1.82-7.133,12.855,12.855,0,0,1,5.049-4.948,14.856,14.856,0,0,1,7.28-1.777,14.476,14.476,0,0,1,7.151,1.752,12.468,12.468,0,0,1,4.921,4.923,14.817,14.817,0,0,1,1.768,7.336Q133.284,395.552,133.181,396.77Zm-18.942-9.01a7.561,7.561,0,0,0-2.589,4.8h15.533a7.468,7.468,0,0,0-2.511-4.771,7.692,7.692,0,0,0-5.229-1.828A7.78,7.78,0,0,0,114.239,387.76Z" transform="translate(-67.358 -369.105)" fill="#00695c"/>
      <path id="Trazado_1744" data-name="Trazado 1744" d="M161.392,383.876q3.128,3,3.128,8.883v15.533h-6.408V393.571a7.566,7.566,0,0,0-1.691-5.355,6.294,6.294,0,0,0-4.82-1.8,7.439,7.439,0,0,0-5.588,2.107,8.343,8.343,0,0,0-2.05,6.065v13.706h-6.408V381.186h6.1v3.5a10.006,10.006,0,0,1,4-2.843,14.53,14.53,0,0,1,5.435-.965A11.5,11.5,0,0,1,161.392,383.876Z" transform="translate(-65.476 -369.105)" fill="#00695c"/>
      <path id="Trazado_1745" data-name="Trazado 1745" d="M197.912,371.1v37.665H191.76v-3.5a9.889,9.889,0,0,1-3.921,2.892,13.355,13.355,0,0,1-5.152.965,14.54,14.54,0,0,1-7.1-1.726,12.458,12.458,0,0,1-4.948-4.9,15.635,15.635,0,0,1,0-14.543,12.52,12.52,0,0,1,4.948-4.874,14.551,14.551,0,0,1,7.1-1.726,13.134,13.134,0,0,1,4.972.914,10.005,10.005,0,0,1,3.845,2.741V371.1Zm-10.3,31.548a7.547,7.547,0,0,0,2.922-2.97,9.807,9.807,0,0,0,0-8.934,7.554,7.554,0,0,0-2.922-2.97,8.806,8.806,0,0,0-8.3,0,7.553,7.553,0,0,0-2.922,2.97,9.8,9.8,0,0,0,0,8.934,7.546,7.546,0,0,0,2.922,2.97,8.8,8.8,0,0,0,8.3,0Z" transform="translate(-63.651 -369.574)" fill="#00695c"/>
      <path id="Trazado_1746" data-name="Trazado 1746" d="M204.61,376.166a3.717,3.717,0,0,1,0-5.431,4.14,4.14,0,0,1,2.922-1.091,4.259,4.259,0,0,1,2.922,1.041,3.339,3.339,0,0,1,1.179,2.614,3.8,3.8,0,0,1-1.154,2.817,4.01,4.01,0,0,1-2.947,1.142A4.136,4.136,0,0,1,204.61,376.166Zm-.307,5.558h6.407v27.107H204.3Z" transform="translate(-61.633 -369.644)" fill="#00695c"/>
    </g>
    <g id="Grupo_4038" data-name="Grupo 4038" transform="translate(48 52)">
      <path id="Trazado_1747" data-name="Trazado 1747" d="M112.9,271.27a10,10,0,1,0,10.1,10A10.05,10.05,0,0,0,112.9,271.27Zm0,15a5,5,0,1,1,5.05-5A5.024,5.024,0,0,1,112.9,286.27Z" transform="translate(-82.598 -221.269)" fill="#00bfa5"/>
      <path id="Trazado_1748" data-name="Trazado 1748" d="M154.583,271.27a10,10,0,1,0,10.1,10A10.05,10.05,0,0,0,154.583,271.27Zm0,15a5,5,0,1,1,5.05-5A5.024,5.024,0,0,1,154.583,286.27Z" transform="translate(-99.036 -221.269)" fill="#00bfa5"/>
      <path id="Trazado_1749" data-name="Trazado 1749" d="M138.679,202.9H87.964l-2.921-13.014a2.52,2.52,0,0,0-2.472-1.986h-10.6a2.5,2.5,0,1,0,0,5h8.7l8.533,38.03a2.52,2.52,0,0,0,2.469,1.974h41.4a2.52,2.52,0,0,0,2.469-1.974l5.606-24.99a2.484,2.484,0,0,0,.059-.54A2.512,2.512,0,0,0,138.679,202.9Zm-7.512,25H93.575l-4.489-20h46.569Z" transform="translate(-69.449 -187.898)" fill="#00bfa5"/>
      <path id="Trazado_1750" data-name="Trazado 1750" d="M145.719,312.955h-40.4a2.513,2.513,0,0,0-2.525,2.5l0,.323a22.728,22.728,0,0,0,45.445-.123v-.2A2.512,2.512,0,0,0,145.719,312.955Zm-20.2,20.233A17.619,17.619,0,0,1,108,317.99l35.049-.035A17.618,17.618,0,0,1,125.52,333.188Z" transform="translate(-82.599 -237.956)" fill="#00bfa5"/>
    </g>
  </g>
</svg>
